# xmcd
# 
# Track frame offsets:
#     150
#     13713
#     27288
#     40414
#     55718
#     70373
#     87705
#     100607
#     113237
#     126462
#     140674
#     155691
#     180361
# 
# Disc length: 2450
# 
# Revision: 3
# Processed by: cddbd v1.5.2PL0 Copyright (c) Steve Scherf et al.
# Submitted via: BonkEnc v1.0.6
# 
DISCID=b509900d
DTITLE=Truck Stop - Grosse Freiheit
DYEAR=2004
DGENRE=Country
TTITLE0=Fahr einfach los
TTITLE1=Die Rechnung bitte !
TTITLE2=Durch Sachsen ohne Anhalt
TTITLE3=Eckernförde
TTITLE4=Dann mach ich's richtig
TTITLE5=Deine Sorgen möcht ich haben
TTITLE6=Highway nach Tennessee
TTITLE7=Truckertraum
TTITLE8=Kennst du einen, kennst du alle
TTITLE9=Ich bleib wie ich bin
TTITLE10=AKH !!
TTITLE11=Wenn Trucker weinen
TTITLE12=Daten-CD
EXTD=
EXTT0=
EXTT1=
EXTT2=
EXTT3=
EXTT4=
EXTT5=
EXTT6=
EXTT7=
EXTT8=
EXTT9=
EXTT10=
EXTT11=
EXTT12=
PLAYORDER=
